#N canvas 392 217 934 1010 12;
#X obj 55 521 cnv 15 800 120 empty empty CONVERT_SLIP_TO_BYTES(LIST) 0 -10 0 14 #c4fcc4 #606060 0;
#X obj 469 83 cnv 15 400 100 empty empty CONVERT_PD_MESSAGE_TO_BYTES(LIST) 0 -10 0 14 #c4c4fc #404040 0;
#X obj 62 89 cnv 15 200 60 empty empty RECEIVE_BYTES(LIST)_FROM_UDP 0 -10 0 14 #fcfcc4 #404040 0;
#X obj 57 210 cnv 15 800 60 empty empty CONVERT_BYTES(LIST)_TO_SLIP 0 -10 0 14 #c4fcc4 #606060 0;
#X obj 56 296 cnv 15 800 200 empty empty SERIAL 0 -10 0 14 #c4fcfc #404040 0;
#X obj 185 466 print errors;
#X msg 144 308 devices;
#X text 201 436 Serial port input/output;
#X text 206 307 List all serial ports;
#X text 370 360 Configure the baud rate and open the named serial port;
#X msg 202 382 close;
#X text 250 381 Close the port;
#X text 193 525 Convert from SLIP to a raw OSC message;
#X obj 162 334 loadbang;
#X obj 108 124 bng 15 250 50 0 empty empty data 17 7 0 10 #fcfcfc #000000 #000000;
#X obj 73 724 cnv 15 350 200 empty empty SEND_BYTES(LIST)_TO_UDP 0 -10 0 14 #fcfcc4 #404040 0;
#X obj 239 786 loadbang;
#X msg 239 850 disconnect;
#X obj 77 417 comport/comport;
#X obj 199 248 bng 15 250 50 0 empty empty error 17 7 0 10 #fcfcfc #000000 #000000;
#X obj 178 553 bng 15 250 50 0 empty empty error 17 7 0 10 #fcfcfc #000000 #000000;
#X obj 101 466 bng 15 250 50 0 empty empty data 17 7 0 10 #fcfcfc #000000 #000000;
#X obj 197 607 bng 15 250 50 0 empty empty error 17 7 0 10 #fcfcfc #000000 #000000;
#X obj 85 881 netsend -u -b;
#X obj 85 736 list prepend send;
#X obj 85 762 list trim;
#X obj 477 95 tgl 15 0 empty empty empty 17 7 0 10 #fcfcfc #000000 #000000 0 1;
#X floatatom 682 95 5 0 255 0 - - - 0;
#X obj 477 128 oscformat -f i led;
#X obj 682 127 oscformat -f i pwm;
#X text 211 222 Convert from byte list (raw OSC) to SLIP;
#X text 64 5 This patcher was created by Thomas O Fredericks on 2022-11-27 and it requires the following additionnal library/object: comport;
#X text 475 149 WARNING: oscfornat automatically prefixes / to the address;
#N canvas 0 50 1091 873 bytesToSlip 0;
#X obj 258 613 list store;
#X msg 602 532 append \$1;
#X obj 574 456 select 192 219;
#X msg 580 494 219 \, 220;
#X msg 673 495 219 \, 221;
#X msg 119 464 append 192 \, bang;
#X msg 293 411 192;
#X obj 635 787 outlet error;
#X obj 347 790 outlet slip;
#N canvas 156 156 450 300 iterate 0;
#X obj 118 136 until;
#X obj 131 219 list store;
#X obj 152 103 t b b l;
#X obj 118 161 f;
#X obj 156 162 + 1;
#X msg 175 136 0, f 2;
#X msg 118 192 get \$1 1;
#X obj 159 28 inlet;
#X obj 175 266 outlet;
#X connect 0 0 3 0;
#X connect 1 0 8 0;
#X connect 1 1 0 1;
#X connect 2 0 0 0;
#X connect 2 1 5 0;
#X connect 2 2 1 1;
#X connect 3 0 4 0;
#X connect 3 0 6 0;
#X connect 4 0 3 1;
#X connect 5 0 3 1;
#X connect 6 0 1 0;
#X connect 7 0 2 0;
#X restore 391 274 pd iterate;
#X obj 479 349 moses 256;
#X obj 391 311 moses 0;
#X obj 218 52 inlet list;
#N canvas 182 182 896 652 switcher 0;
#X obj 217 67 inlet;
#X obj 230 412 outlet out0;
#X obj 432 408 outlet out1;
#X obj 392 65 inlet select outlet;
#X obj 270 281 route 0 1;
#X obj 265 222 list prepend 0;
#X connect 0 0 5 0;
#X connect 3 0 5 1;
#X connect 4 0 1 0;
#X connect 4 1 2 0;
#X connect 5 0 4 0;
#X restore 401 688 pd switcher;
#X msg 442 445 1;
#X obj 218 130 t b b a b;
#X msg 391 448 0;
#X connect 0 0 13 0;
#X connect 1 0 0 0;
#X connect 2 0 3 0;
#X connect 2 1 4 0;
#X connect 2 2 1 0;
#X connect 3 0 1 0;
#X connect 4 0 1 0;
#X connect 5 0 0 0;
#X connect 6 0 0 1;
#X connect 9 0 11 0;
#X connect 10 0 2 0;
#X connect 10 1 14 0;
#X connect 11 0 14 0;
#X connect 11 1 10 0;
#X connect 12 0 15 0;
#X connect 13 0 8 0;
#X connect 13 1 7 0;
#X connect 14 0 13 1;
#X connect 15 0 16 0;
#X connect 15 1 5 0;
#X connect 15 2 9 0;
#X connect 15 3 6 0;
#X connect 16 0 13 1;
#X restore 86 223 pd bytesToSlip;
#N canvas 0 50 1195 915 slipToBytes 0;
#X obj 292 702 list store;
#X obj 293 806 route bang;
#X obj 281 309 select 192;
#X obj 750 475 select 219;
#X obj 813 672 select 220 221;
#X msg 801 726 192;
#X msg 848 724 219;
#X obj 823 637 t a b;
#N canvas 156 156 450 300 iterate 0;
#X obj 118 136 until;
#X obj 131 219 list store;
#X obj 152 103 t b b l;
#X obj 118 161 f;
#X obj 156 162 + 1;
#X msg 175 136 0, f 2;
#X msg 118 192 get \$1 1;
#X obj 159 28 inlet;
#X obj 175 266 outlet;
#X connect 0 0 3 0;
#X connect 1 0 8 0;
#X connect 1 1 0 1;
#X connect 2 0 0 0;
#X connect 2 1 5 0;
#X connect 2 2 1 1;
#X connect 3 0 4 0;
#X connect 3 0 6 0;
#X connect 4 0 3 1;
#X connect 5 0 3 1;
#X connect 6 0 1 0;
#X connect 7 0 2 0;
#X restore 281 261 pd iterate;
#X obj 366 1046 outlet decoded;
#X obj 639 1059 outlet error;
#N canvas 182 182 896 652 switcher 0;
#X obj 217 67 inlet;
#X obj 230 412 outlet out0;
#X obj 432 408 outlet out1;
#X obj 392 65 inlet select outlet;
#X obj 270 281 route 0 1;
#X obj 265 222 list prepend 0;
#X connect 0 0 5 0;
#X connect 3 0 5 1;
#X connect 4 0 1 0;
#X connect 4 1 2 0;
#X connect 5 0 4 0;
#X restore 798 586 pd switcher;
#X msg 692 781 append \$1;
#X msg 919 564 0;
#X msg 746 532 1;
#X obj 280 464 t b b b b;
#X msg 540 883 0;
#X msg 932 799 1;
#X obj 140 34 inlet list;
#N canvas 182 182 896 652 switcher 0;
#X obj 217 67 inlet;
#X obj 230 412 outlet out0;
#X obj 432 408 outlet out1;
#X obj 392 65 inlet select outlet;
#X obj 270 281 route 0 1;
#X obj 265 222 list prepend 0;
#X connect 0 0 5 0;
#X connect 3 0 5 1;
#X connect 4 0 1 0;
#X connect 4 1 2 0;
#X connect 5 0 4 0;
#X restore 468 942 pd switcher;
#X connect 0 0 1 0;
#X connect 1 1 19 0;
#X connect 2 0 15 0;
#X connect 2 1 3 0;
#X connect 3 0 14 0;
#X connect 3 1 11 0;
#X connect 4 0 5 0;
#X connect 4 1 6 0;
#X connect 4 2 17 0;
#X connect 5 0 12 0;
#X connect 6 0 12 0;
#X connect 7 0 4 0;
#X connect 7 1 13 0;
#X connect 8 0 2 0;
#X connect 11 0 12 0;
#X connect 11 1 7 0;
#X connect 12 0 0 0;
#X connect 13 0 11 1;
#X connect 14 0 11 1;
#X connect 15 0 16 0;
#X connect 15 1 0 1;
#X connect 15 2 0 0;
#X connect 16 0 19 1;
#X connect 17 0 19 1;
#X connect 18 0 8 0;
#X connect 19 0 9 0;
#X connect 19 1 10 0;
#X restore 85 529 pd slipToBytes;
#X text 209 577 Error checking : make sure the packet size is a multiple of 4;
#N canvas 156 156 1101 683 sizeIsMultOf4 0;
#X obj 157 132 list length;
#X obj 161 161 % 4;
#X obj 168 199 == 0;
#X obj 236 245 select 0;
#N canvas 182 182 896 652 switcher 0;
#X obj 217 67 inlet;
#X obj 230 412 outlet out0;
#X obj 432 408 outlet out1;
#X obj 392 65 inlet select outlet;
#X obj 270 281 route 0 1;
#X obj 265 222 list prepend 0;
#X connect 0 0 5 0;
#X connect 3 0 5 1;
#X connect 4 0 1 0;
#X connect 4 1 2 0;
#X connect 5 0 4 0;
#X restore 104 312 pd switcher;
#X obj 103 96 t a a b;
#X msg 270 90 0;
#X msg 238 284 1;
#X obj 246 434 outlet error;
#X obj 105 431 outlet valid;
#X obj 102 37 inlet list;
#X connect 0 0 1 0;
#X connect 1 0 2 0;
#X connect 2 0 3 0;
#X connect 3 0 7 0;
#X connect 4 0 9 0;
#X connect 4 1 8 0;
#X connect 5 0 4 0;
#X connect 5 1 0 0;
#X connect 5 2 6 0;
#X connect 6 0 4 1;
#X connect 7 0 4 1;
#X connect 10 0 5 0;
#X restore 85 580 pd sizeIsMultOf4;
#X msg 239 818 connect localhost 8001;
#X obj 964 548 cnv 15 800 120 empty empty CONVERT_SLIP_TO_BYTES(LIST) 0 -10 0 14 #c4fcc4 #606060 0;
#X obj 1378 110 cnv 15 400 100 empty empty CONVERT_PD_MESSAGE_TO_BYTES(LIST) 0 -10 0 14 #c4c4fc #404040 0;
#X obj 971 116 cnv 15 200 60 empty empty RECEIVE_BYTES(LIST)_FROM_UDP 0 -10 0 14 #fcfcc4 #404040 0;
#X obj 966 237 cnv 15 800 60 empty empty CONVERT_BYTES(LIST)_TO_SLIP 0 -10 0 14 #c4fcc4 #606060 0;
#X obj 965 323 cnv 15 800 200 empty empty SERIAL 0 -10 0 14 #c4fcfc #404040 0;
#X obj 1094 493 print errors;
#X msg 1053 335 devices;
#X text 1110 463 Serial port input/output;
#X text 1115 334 List all serial ports;
#X text 1279 387 Configure the baud rate and open the named serial port;
#X msg 1111 409 close;
#X text 1159 408 Close the port;
#X text 1102 552 Convert from SLIP to a raw OSC message;
#X obj 1071 361 loadbang;
#X obj 1017 151 bng 15 250 50 0 empty empty data 17 7 0 10 #fcfcfc #000000 #000000;
#X obj 964 791 cnv 15 350 200 empty empty SEND_BYTES(LIST)_TO_UDP 0 -10 0 14 #fcfcc4 #404040 0;
#X obj 1149 849 loadbang;
#X msg 1149 913 disconnect;
#X obj 993 464 comport/comport;
#X obj 1108 275 bng 15 250 50 0 empty empty error 17 7 0 10 #fcfcfc #000000 #000000;
#X obj 1087 580 bng 15 250 50 0 empty empty error 17 7 0 10 #fcfcfc #000000 #000000;
#X obj 1010 493 bng 15 250 50 0 empty empty data 17 7 0 10 #fcfcfc #000000 #000000;
#X obj 1106 634 bng 15 250 50 0 empty empty error 17 7 0 10 #fcfcfc #000000 #000000;
#X obj 995 944 netsend -u -b;
#X obj 976 803 list prepend send;
#X obj 976 829 list trim;
#X obj 1386 122 tgl 15 0 empty empty empty 17 7 0 10 #fcfcfc #000000 #000000 0 1;
#X floatatom 1591 122 5 0 255 0 - - - 0;
#X obj 1386 155 oscformat -f i led;
#X obj 1591 154 oscformat -f i pwm;
#X text 1120 249 Convert from byte list (raw OSC) to SLIP;
#X text 973 32 This patcher was created by Thomas O Fredericks on 2022-11-27 and it requires the following additionnal library/object: comport;
#X text 1384 176 WARNING: oscfornat automatically prefixes / to the address;
#N canvas 0 50 1091 873 bytesToSlip 0;
#X obj 258 613 list store;
#X msg 602 532 append \$1;
#X obj 574 456 select 192 219;
#X msg 580 494 219 \, 220;
#X msg 673 495 219 \, 221;
#X msg 119 464 append 192 \, bang;
#X msg 293 411 192;
#X obj 635 787 outlet error;
#X obj 347 790 outlet slip;
#N canvas 156 156 450 300 iterate 0;
#X obj 118 136 until;
#X obj 131 219 list store;
#X obj 152 103 t b b l;
#X obj 118 161 f;
#X obj 156 162 + 1;
#X msg 175 136 0, f 2;
#X msg 118 192 get \$1 1;
#X obj 159 28 inlet;
#X obj 175 266 outlet;
#X connect 0 0 3 0;
#X connect 1 0 8 0;
#X connect 1 1 0 1;
#X connect 2 0 0 0;
#X connect 2 1 5 0;
#X connect 2 2 1 1;
#X connect 3 0 4 0;
#X connect 3 0 6 0;
#X connect 4 0 3 1;
#X connect 5 0 3 1;
#X connect 6 0 1 0;
#X connect 7 0 2 0;
#X restore 391 274 pd iterate;
#X obj 479 349 moses 256;
#X obj 391 311 moses 0;
#X obj 218 52 inlet list;
#N canvas 182 182 896 652 switcher 0;
#X obj 217 67 inlet;
#X obj 230 412 outlet out0;
#X obj 432 408 outlet out1;
#X obj 392 65 inlet select outlet;
#X obj 270 281 route 0 1;
#X obj 265 222 list prepend 0;
#X connect 0 0 5 0;
#X connect 3 0 5 1;
#X connect 4 0 1 0;
#X connect 4 1 2 0;
#X connect 5 0 4 0;
#X restore 401 688 pd switcher;
#X msg 442 445 1;
#X obj 218 130 t b b a b;
#X msg 391 448 0;
#X connect 0 0 13 0;
#X connect 1 0 0 0;
#X connect 2 0 3 0;
#X connect 2 1 4 0;
#X connect 2 2 1 0;
#X connect 3 0 1 0;
#X connect 4 0 1 0;
#X connect 5 0 0 0;
#X connect 6 0 0 1;
#X connect 9 0 11 0;
#X connect 10 0 2 0;
#X connect 10 1 14 0;
#X connect 11 0 14 0;
#X connect 11 1 10 0;
#X connect 12 0 15 0;
#X connect 13 0 8 0;
#X connect 13 1 7 0;
#X connect 14 0 13 1;
#X connect 15 0 16 0;
#X connect 15 1 5 0;
#X connect 15 2 9 0;
#X connect 15 3 6 0;
#X connect 16 0 13 1;
#X restore 995 250 pd bytesToSlip;
#N canvas 0 50 1195 915 slipToBytes 0;
#X obj 292 702 list store;
#X obj 293 806 route bang;
#X obj 281 309 select 192;
#X obj 750 475 select 219;
#X obj 813 672 select 220 221;
#X msg 801 726 192;
#X msg 848 724 219;
#X obj 823 637 t a b;
#N canvas 156 156 450 300 iterate 0;
#X obj 118 136 until;
#X obj 131 219 list store;
#X obj 152 103 t b b l;
#X obj 118 161 f;
#X obj 156 162 + 1;
#X msg 175 136 0, f 2;
#X msg 118 192 get \$1 1;
#X obj 159 28 inlet;
#X obj 175 266 outlet;
#X connect 0 0 3 0;
#X connect 1 0 8 0;
#X connect 1 1 0 1;
#X connect 2 0 0 0;
#X connect 2 1 5 0;
#X connect 2 2 1 1;
#X connect 3 0 4 0;
#X connect 3 0 6 0;
#X connect 4 0 3 1;
#X connect 5 0 3 1;
#X connect 6 0 1 0;
#X connect 7 0 2 0;
#X restore 281 261 pd iterate;
#X obj 366 1046 outlet decoded;
#X obj 639 1059 outlet error;
#N canvas 182 182 896 652 switcher 0;
#X obj 217 67 inlet;
#X obj 230 412 outlet out0;
#X obj 432 408 outlet out1;
#X obj 392 65 inlet select outlet;
#X obj 270 281 route 0 1;
#X obj 265 222 list prepend 0;
#X connect 0 0 5 0;
#X connect 3 0 5 1;
#X connect 4 0 1 0;
#X connect 4 1 2 0;
#X connect 5 0 4 0;
#X restore 798 586 pd switcher;
#X msg 692 781 append \$1;
#X msg 919 564 0;
#X msg 746 532 1;
#X obj 280 464 t b b b b;
#X msg 540 883 0;
#X msg 932 799 1;
#X obj 140 34 inlet list;
#N canvas 182 182 896 652 switcher 0;
#X obj 217 67 inlet;
#X obj 230 412 outlet out0;
#X obj 432 408 outlet out1;
#X obj 392 65 inlet select outlet;
#X obj 270 281 route 0 1;
#X obj 265 222 list prepend 0;
#X connect 0 0 5 0;
#X connect 3 0 5 1;
#X connect 4 0 1 0;
#X connect 4 1 2 0;
#X connect 5 0 4 0;
#X restore 468 942 pd switcher;
#X connect 0 0 1 0;
#X connect 1 1 19 0;
#X connect 2 0 15 0;
#X connect 2 1 3 0;
#X connect 3 0 14 0;
#X connect 3 1 11 0;
#X connect 4 0 5 0;
#X connect 4 1 6 0;
#X connect 4 2 17 0;
#X connect 5 0 12 0;
#X connect 6 0 12 0;
#X connect 7 0 4 0;
#X connect 7 1 13 0;
#X connect 8 0 2 0;
#X connect 11 0 12 0;
#X connect 11 1 7 0;
#X connect 12 0 0 0;
#X connect 13 0 11 1;
#X connect 14 0 11 1;
#X connect 15 0 16 0;
#X connect 15 1 0 1;
#X connect 15 2 0 0;
#X connect 16 0 19 1;
#X connect 17 0 19 1;
#X connect 18 0 8 0;
#X connect 19 0 9 0;
#X connect 19 1 10 0;
#X restore 994 556 pd slipToBytes;
#X text 1118 604 Error checking : make sure the packet size is a multiple of 4;
#N canvas 156 156 1101 683 sizeIsMultOf4 0;
#X obj 157 132 list length;
#X obj 161 161 % 4;
#X obj 168 199 == 0;
#X obj 236 245 select 0;
#N canvas 182 182 896 652 switcher 0;
#X obj 217 67 inlet;
#X obj 230 412 outlet out0;
#X obj 432 408 outlet out1;
#X obj 392 65 inlet select outlet;
#X obj 270 281 route 0 1;
#X obj 265 222 list prepend 0;
#X connect 0 0 5 0;
#X connect 3 0 5 1;
#X connect 4 0 1 0;
#X connect 4 1 2 0;
#X connect 5 0 4 0;
#X restore 104 312 pd switcher;
#X obj 103 96 t a a b;
#X msg 270 90 0;
#X msg 238 284 1;
#X obj 246 434 outlet error;
#X obj 105 431 outlet valid;
#X obj 102 37 inlet list;
#X connect 0 0 1 0;
#X connect 1 0 2 0;
#X connect 2 0 3 0;
#X connect 3 0 7 0;
#X connect 4 0 9 0;
#X connect 4 1 8 0;
#X connect 5 0 4 0;
#X connect 5 1 0 0;
#X connect 5 2 6 0;
#X connect 6 0 4 1;
#X connect 7 0 4 1;
#X connect 10 0 5 0;
#X restore 994 607 pd sizeIsMultOf4;
#X obj 1888 556 cnv 15 800 120 empty empty CONVERT_SLIP_TO_BYTES(LIST) 0 -10 0 14 #c4fcc4 #606060 0;
#X obj 2302 118 cnv 15 400 100 empty empty CONVERT_PD_MESSAGE_TO_BYTES(LIST) 0 -10 0 14 #c4c4fc #404040 0;
#X obj 1895 124 cnv 15 200 60 empty empty RECEIVE_BYTES(LIST)_FROM_UDP 0 -10 0 14 #fcfcc4 #404040 0;
#X obj 1890 245 cnv 15 800 60 empty empty CONVERT_BYTES(LIST)_TO_SLIP 0 -10 0 14 #c4fcc4 #606060 0;
#X obj 1889 331 cnv 15 800 200 empty empty SERIAL 0 -10 0 14 #c4fcfc #404040 0;
#X obj 2018 501 print errors;
#X msg 1977 343 devices;
#X text 2034 471 Serial port input/output;
#X text 2039 342 List all serial ports;
#X text 2203 395 Configure the baud rate and open the named serial port;
#X msg 2035 417 close;
#X text 2083 416 Close the port;
#X text 2026 560 Convert from SLIP to a raw OSC message;
#X obj 1995 369 loadbang;
#X obj 1941 159 bng 15 250 50 0 empty empty data 17 7 0 10 #fcfcfc #000000 #000000;
#X obj 1745 832 cnv 15 350 200 empty empty SEND_BYTES(LIST)_TO_UDP 0 -10 0 14 #fcfcc4 #404040 0;
#X obj 1930 890 loadbang;
#X msg 1930 954 disconnect;
#X obj 1917 472 comport/comport;
#X obj 2032 283 bng 15 250 50 0 empty empty error 17 7 0 10 #fcfcfc #000000 #000000;
#X obj 2011 588 bng 15 250 50 0 empty empty error 17 7 0 10 #fcfcfc #000000 #000000;
#X obj 1934 501 bng 15 250 50 0 empty empty data 17 7 0 10 #fcfcfc #000000 #000000;
#X obj 2030 642 bng 15 250 50 0 empty empty error 17 7 0 10 #fcfcfc #000000 #000000;
#X obj 1776 985 netsend -u -b;
#X obj 1757 844 list prepend send;
#X obj 1757 870 list trim;
#X obj 2310 130 tgl 15 0 empty empty empty 17 7 0 10 #fcfcfc #000000 #000000 0 1;
#X floatatom 2515 130 5 0 255 0 - - - 0;
#X obj 2310 163 oscformat -f i led;
#X obj 2515 162 oscformat -f i pwm;
#X text 2044 257 Convert from byte list (raw OSC) to SLIP;
#X text 1897 40 This patcher was created by Thomas O Fredericks on 2022-11-27 and it requires the following additionnal library/object: comport;
#X text 2308 184 WARNING: oscfornat automatically prefixes / to the address;
#N canvas 0 50 1091 873 bytesToSlip 0;
#X obj 258 613 list store;
#X msg 602 532 append \$1;
#X obj 574 456 select 192 219;
#X msg 580 494 219 \, 220;
#X msg 673 495 219 \, 221;
#X msg 119 464 append 192 \, bang;
#X msg 293 411 192;
#X obj 635 787 outlet error;
#X obj 347 790 outlet slip;
#N canvas 156 156 450 300 iterate 0;
#X obj 118 136 until;
#X obj 131 219 list store;
#X obj 152 103 t b b l;
#X obj 118 161 f;
#X obj 156 162 + 1;
#X msg 175 136 0, f 2;
#X msg 118 192 get \$1 1;
#X obj 159 28 inlet;
#X obj 175 266 outlet;
#X connect 0 0 3 0;
#X connect 1 0 8 0;
#X connect 1 1 0 1;
#X connect 2 0 0 0;
#X connect 2 1 5 0;
#X connect 2 2 1 1;
#X connect 3 0 4 0;
#X connect 3 0 6 0;
#X connect 4 0 3 1;
#X connect 5 0 3 1;
#X connect 6 0 1 0;
#X connect 7 0 2 0;
#X restore 391 274 pd iterate;
#X obj 479 349 moses 256;
#X obj 391 311 moses 0;
#X obj 218 52 inlet list;
#N canvas 182 182 896 652 switcher 0;
#X obj 217 67 inlet;
#X obj 230 412 outlet out0;
#X obj 432 408 outlet out1;
#X obj 392 65 inlet select outlet;
#X obj 270 281 route 0 1;
#X obj 265 222 list prepend 0;
#X connect 0 0 5 0;
#X connect 3 0 5 1;
#X connect 4 0 1 0;
#X connect 4 1 2 0;
#X connect 5 0 4 0;
#X restore 401 688 pd switcher;
#X msg 442 445 1;
#X obj 218 130 t b b a b;
#X msg 391 448 0;
#X connect 0 0 13 0;
#X connect 1 0 0 0;
#X connect 2 0 3 0;
#X connect 2 1 4 0;
#X connect 2 2 1 0;
#X connect 3 0 1 0;
#X connect 4 0 1 0;
#X connect 5 0 0 0;
#X connect 6 0 0 1;
#X connect 9 0 11 0;
#X connect 10 0 2 0;
#X connect 10 1 14 0;
#X connect 11 0 14 0;
#X connect 11 1 10 0;
#X connect 12 0 15 0;
#X connect 13 0 8 0;
#X connect 13 1 7 0;
#X connect 14 0 13 1;
#X connect 15 0 16 0;
#X connect 15 1 5 0;
#X connect 15 2 9 0;
#X connect 15 3 6 0;
#X connect 16 0 13 1;
#X restore 1919 258 pd bytesToSlip;
#N canvas 0 50 1195 915 slipToBytes 0;
#X obj 292 702 list store;
#X obj 293 806 route bang;
#X obj 281 309 select 192;
#X obj 750 475 select 219;
#X obj 813 672 select 220 221;
#X msg 801 726 192;
#X msg 848 724 219;
#X obj 823 637 t a b;
#N canvas 156 156 450 300 iterate 0;
#X obj 118 136 until;
#X obj 131 219 list store;
#X obj 152 103 t b b l;
#X obj 118 161 f;
#X obj 156 162 + 1;
#X msg 175 136 0, f 2;
#X msg 118 192 get \$1 1;
#X obj 159 28 inlet;
#X obj 175 266 outlet;
#X connect 0 0 3 0;
#X connect 1 0 8 0;
#X connect 1 1 0 1;
#X connect 2 0 0 0;
#X connect 2 1 5 0;
#X connect 2 2 1 1;
#X connect 3 0 4 0;
#X connect 3 0 6 0;
#X connect 4 0 3 1;
#X connect 5 0 3 1;
#X connect 6 0 1 0;
#X connect 7 0 2 0;
#X restore 281 261 pd iterate;
#X obj 366 1046 outlet decoded;
#X obj 639 1059 outlet error;
#N canvas 182 182 896 652 switcher 0;
#X obj 217 67 inlet;
#X obj 230 412 outlet out0;
#X obj 432 408 outlet out1;
#X obj 392 65 inlet select outlet;
#X obj 270 281 route 0 1;
#X obj 265 222 list prepend 0;
#X connect 0 0 5 0;
#X connect 3 0 5 1;
#X connect 4 0 1 0;
#X connect 4 1 2 0;
#X connect 5 0 4 0;
#X restore 798 586 pd switcher;
#X msg 692 781 append \$1;
#X msg 919 564 0;
#X msg 746 532 1;
#X obj 280 464 t b b b b;
#X msg 540 883 0;
#X msg 932 799 1;
#X obj 140 34 inlet list;
#N canvas 182 182 896 652 switcher 0;
#X obj 217 67 inlet;
#X obj 230 412 outlet out0;
#X obj 432 408 outlet out1;
#X obj 392 65 inlet select outlet;
#X obj 270 281 route 0 1;
#X obj 265 222 list prepend 0;
#X connect 0 0 5 0;
#X connect 3 0 5 1;
#X connect 4 0 1 0;
#X connect 4 1 2 0;
#X connect 5 0 4 0;
#X restore 468 942 pd switcher;
#X connect 0 0 1 0;
#X connect 1 1 19 0;
#X connect 2 0 15 0;
#X connect 2 1 3 0;
#X connect 3 0 14 0;
#X connect 3 1 11 0;
#X connect 4 0 5 0;
#X connect 4 1 6 0;
#X connect 4 2 17 0;
#X connect 5 0 12 0;
#X connect 6 0 12 0;
#X connect 7 0 4 0;
#X connect 7 1 13 0;
#X connect 8 0 2 0;
#X connect 11 0 12 0;
#X connect 11 1 7 0;
#X connect 12 0 0 0;
#X connect 13 0 11 1;
#X connect 14 0 11 1;
#X connect 15 0 16 0;
#X connect 15 1 0 1;
#X connect 15 2 0 0;
#X connect 16 0 19 1;
#X connect 17 0 19 1;
#X connect 18 0 8 0;
#X connect 19 0 9 0;
#X connect 19 1 10 0;
#X restore 1918 564 pd slipToBytes;
#X text 2042 612 Error checking : make sure the packet size is a multiple of 4;
#N canvas 156 156 1101 683 sizeIsMultOf4 0;
#X obj 157 132 list length;
#X obj 161 161 % 4;
#X obj 168 199 == 0;
#X obj 236 245 select 0;
#N canvas 182 182 896 652 switcher 0;
#X obj 217 67 inlet;
#X obj 230 412 outlet out0;
#X obj 432 408 outlet out1;
#X obj 392 65 inlet select outlet;
#X obj 270 281 route 0 1;
#X obj 265 222 list prepend 0;
#X connect 0 0 5 0;
#X connect 3 0 5 1;
#X connect 4 0 1 0;
#X connect 4 1 2 0;
#X connect 5 0 4 0;
#X restore 104 312 pd switcher;
#X obj 103 96 t a a b;
#X msg 270 90 0;
#X msg 238 284 1;
#X obj 246 434 outlet error;
#X obj 105 431 outlet valid;
#X obj 102 37 inlet list;
#X connect 0 0 1 0;
#X connect 1 0 2 0;
#X connect 2 0 3 0;
#X connect 3 0 7 0;
#X connect 4 0 9 0;
#X connect 4 1 8 0;
#X connect 5 0 4 0;
#X connect 5 1 0 0;
#X connect 5 2 6 0;
#X connect 6 0 4 1;
#X connect 7 0 4 1;
#X connect 10 0 5 0;
#X restore 1918 615 pd sizeIsMultOf4;
#X obj 84 95 netreceive -u -b 8000;
#X obj 993 122 netreceive -u -b 8000;
#X obj 1917 130 netreceive -u -b 8000;
#X msg 1149 881 connect localhost 8002;
#X msg 1930 922 connect localhost 8003;
#X msg 162 359 baud 115200 \, devicename COM5;
#X msg 1071 386 baud 115200 \, devicename COM7;
#X msg 1995 394 baud 115200 \, devicename COM8;
#X connect 6 0 18 0;
#X connect 10 0 18 0;
#X connect 13 0 117 0;
#X connect 16 0 37 0;
#X connect 17 0 23 0;
#X connect 18 0 34 0;
#X connect 18 0 21 0;
#X connect 18 1 5 0;
#X connect 24 0 25 0;
#X connect 25 0 23 0;
#X connect 26 0 28 0;
#X connect 27 0 29 0;
#X connect 28 0 33 0;
#X connect 29 0 33 0;
#X connect 33 0 18 0;
#X connect 33 1 19 0;
#X connect 34 0 36 0;
#X connect 34 1 20 0;
#X connect 36 0 24 0;
#X connect 36 1 22 0;
#X connect 37 0 23 0;
#X connect 44 0 56 0;
#X connect 48 0 56 0;
#X connect 51 0 118 0;
#X connect 54 0 115 0;
#X connect 55 0 61 0;
#X connect 56 0 72 0;
#X connect 56 0 59 0;
#X connect 56 1 43 0;
#X connect 62 0 63 0;
#X connect 63 0 61 0;
#X connect 64 0 66 0;
#X connect 65 0 67 0;
#X connect 66 0 71 0;
#X connect 67 0 71 0;
#X connect 71 0 56 0;
#X connect 71 1 57 0;
#X connect 72 0 74 0;
#X connect 72 1 58 0;
#X connect 74 0 62 0;
#X connect 74 1 60 0;
#X connect 81 0 93 0;
#X connect 85 0 93 0;
#X connect 88 0 119 0;
#X connect 91 0 116 0;
#X connect 92 0 98 0;
#X connect 93 0 109 0;
#X connect 93 0 96 0;
#X connect 93 1 80 0;
#X connect 99 0 100 0;
#X connect 100 0 98 0;
#X connect 101 0 103 0;
#X connect 102 0 104 0;
#X connect 103 0 108 0;
#X connect 104 0 108 0;
#X connect 108 0 93 0;
#X connect 108 1 94 0;
#X connect 109 0 111 0;
#X connect 109 1 95 0;
#X connect 111 0 99 0;
#X connect 111 1 97 0;
#X connect 112 0 33 0;
#X connect 112 0 14 0;
#X connect 113 0 71 0;
#X connect 113 0 52 0;
#X connect 114 0 108 0;
#X connect 114 0 89 0;
#X connect 115 0 61 0;
#X connect 116 0 98 0;
#X connect 117 0 18 0;
#X connect 118 0 56 0;
#X connect 119 0 93 0;
