#N canvas 392 217 934 1010 12;
#X obj 55 521 cnv 15 800 120 empty empty CONVERT_SLIP_TO_BYTES(LIST) 0 -10 0 14 #c4fcc4 #606060 0;
#X obj 469 83 cnv 15 400 100 empty empty CONVERT_PD_MESSAGE_TO_BYTES(LIST) 0 -10 0 14 #c4c4fc #404040 0;
#X obj 466 703 cnv 15 400 260 empty empty CONVERT_BYTES(LIST)_TO_PD_MESSAGE 0 -10 0 14 #c4c4fc #404040 0;
#X obj 62 89 cnv 15 200 60 empty empty RECEIVE_BYTES(LIST)_FROM_UDP 0 -10 0 14 #fcfcc4 #404040 0;
#X obj 57 210 cnv 15 800 60 empty empty CONVERT_BYTES(LIST)_TO_SLIP 0 -10 0 14 #c4fcc4 #606060 0;
#X obj 56 296 cnv 15 800 200 empty empty SERIAL 0 -10 0 14 #c4fcfc #404040 0;
#X obj 185 466 print errors;
#X msg 144 308 devices;
#X text 201 436 Serial port input/output;
#X text 206 307 List all serial ports;
#X text 370 360 Configure the baud rate and open the named serial port;
#X msg 202 382 close;
#X text 250 381 Close the port;
#X text 193 525 Convert from SLIP to a raw OSC message;
#X obj 162 334 loadbang;
#X obj 108 124 bng 15 250 50 0 empty empty data 17 7 0 10 #fcfcfc #000000 #000000;
#X obj 479 894 spigot;
#X obj 517 870 tgl 15 0 empty empty empty 17 7 0 10 #fcfcfc #000000 #000000 0 1;
#X obj 478 938 print debug;
#X obj 73 724 cnv 15 350 200 empty empty SEND_BYTES(LIST)_TO_UDP 0 -10 0 14 #fcfcc4 #404040 0;
#X obj 239 786 loadbang;
#X msg 239 850 disconnect;
#X text 536 869 Print the message sent by the serial port;
#X obj 84 437 comport/comport;
#X obj 199 248 bng 15 250 50 0 empty empty error 17 7 0 10 #fcfcfc #000000 #000000;
#X obj 178 553 bng 15 250 50 0 empty empty error 17 7 0 10 #fcfcfc #000000 #000000;
#X obj 101 466 bng 15 250 50 0 empty empty data 17 7 0 10 #fcfcfc #000000 #000000;
#X obj 197 607 bng 15 250 50 0 empty empty error 17 7 0 10 #fcfcfc #000000 #000000;
#X obj 85 881 netsend -u -b;
#X obj 479 713 oscparse;
#X text 542 714 Convert raw OSC to PD message;
#X obj 479 742 list trim;
#X obj 85 736 list prepend send;
#X obj 85 762 list trim;
#X floatatom 538 819 5 0 0 0 - - - 0;
#X floatatom 595 819 5 0 0 0 - - - 0;
#X obj 652 822 tgl 15 0 empty empty empty 17 7 0 10 #fcfcfc #000000 #000000 0 1;
#X obj 477 95 tgl 15 0 empty empty empty 17 7 0 10 #fcfcfc #000000 #000000 0 1;
#X floatatom 682 95 5 0 255 0 - - - 0;
#X obj 538 785 route pot photo button;
#X obj 477 128 oscformat -f i led;
#X obj 682 127 oscformat -f i pwm;
#X text 521 762 WARNING: oscparse removes the / from the address;
#X text 211 222 Convert from byte list (raw OSC) to SLIP;
#X text 64 5 This patcher was created by Thomas O Fredericks on 2022-11-27 and it requires the following additionnal library/object: comport;
#X text 475 149 WARNING: oscfornat automatically prefixes / to the address;
#N canvas 0 50 1091 873 bytesToSlip 0;
#X obj 258 613 list store;
#X msg 602 532 append \$1;
#X obj 574 456 select 192 219;
#X msg 580 494 219 \, 220;
#X msg 673 495 219 \, 221;
#X msg 119 464 append 192 \, bang;
#X msg 293 411 192;
#X obj 635 787 outlet error;
#X obj 347 790 outlet slip;
#N canvas 156 156 450 300 iterate 0;
#X obj 118 136 until;
#X obj 131 219 list store;
#X obj 152 103 t b b l;
#X obj 118 161 f;
#X obj 156 162 + 1;
#X msg 175 136 0, f 2;
#X msg 118 192 get \$1 1;
#X obj 159 28 inlet;
#X obj 175 266 outlet;
#X connect 0 0 3 0;
#X connect 1 0 8 0;
#X connect 1 1 0 1;
#X connect 2 0 0 0;
#X connect 2 1 5 0;
#X connect 2 2 1 1;
#X connect 3 0 4 0;
#X connect 3 0 6 0;
#X connect 4 0 3 1;
#X connect 5 0 3 1;
#X connect 6 0 1 0;
#X connect 7 0 2 0;
#X restore 391 274 pd iterate;
#X obj 479 349 moses 256;
#X obj 391 311 moses 0;
#X obj 218 52 inlet list;
#N canvas 182 182 896 652 switcher 0;
#X obj 217 67 inlet;
#X obj 230 412 outlet out0;
#X obj 432 408 outlet out1;
#X obj 392 65 inlet select outlet;
#X obj 270 281 route 0 1;
#X obj 265 222 list prepend 0;
#X connect 0 0 5 0;
#X connect 3 0 5 1;
#X connect 4 0 1 0;
#X connect 4 1 2 0;
#X connect 5 0 4 0;
#X restore 401 688 pd switcher;
#X msg 442 445 1;
#X obj 218 130 t b b a b;
#X msg 391 448 0;
#X connect 0 0 13 0;
#X connect 1 0 0 0;
#X connect 2 0 3 0;
#X connect 2 1 4 0;
#X connect 2 2 1 0;
#X connect 3 0 1 0;
#X connect 4 0 1 0;
#X connect 5 0 0 0;
#X connect 6 0 0 1;
#X connect 9 0 11 0;
#X connect 10 0 2 0;
#X connect 10 1 14 0;
#X connect 11 0 14 0;
#X connect 11 1 10 0;
#X connect 12 0 15 0;
#X connect 13 0 8 0;
#X connect 13 1 7 0;
#X connect 14 0 13 1;
#X connect 15 0 16 0;
#X connect 15 1 5 0;
#X connect 15 2 9 0;
#X connect 15 3 6 0;
#X connect 16 0 13 1;
#X restore 86 223 pd bytesToSlip;
#N canvas 0 50 1195 915 slipToBytes 0;
#X obj 292 702 list store;
#X obj 293 806 route bang;
#X obj 281 309 select 192;
#X obj 750 475 select 219;
#X obj 813 672 select 220 221;
#X msg 801 726 192;
#X msg 848 724 219;
#X obj 823 637 t a b;
#N canvas 156 156 450 300 iterate 0;
#X obj 118 136 until;
#X obj 131 219 list store;
#X obj 152 103 t b b l;
#X obj 118 161 f;
#X obj 156 162 + 1;
#X msg 175 136 0, f 2;
#X msg 118 192 get \$1 1;
#X obj 159 28 inlet;
#X obj 175 266 outlet;
#X connect 0 0 3 0;
#X connect 1 0 8 0;
#X connect 1 1 0 1;
#X connect 2 0 0 0;
#X connect 2 1 5 0;
#X connect 2 2 1 1;
#X connect 3 0 4 0;
#X connect 3 0 6 0;
#X connect 4 0 3 1;
#X connect 5 0 3 1;
#X connect 6 0 1 0;
#X connect 7 0 2 0;
#X restore 281 261 pd iterate;
#X obj 366 1046 outlet decoded;
#X obj 639 1059 outlet error;
#N canvas 182 182 896 652 switcher 0;
#X obj 217 67 inlet;
#X obj 230 412 outlet out0;
#X obj 432 408 outlet out1;
#X obj 392 65 inlet select outlet;
#X obj 270 281 route 0 1;
#X obj 265 222 list prepend 0;
#X connect 0 0 5 0;
#X connect 3 0 5 1;
#X connect 4 0 1 0;
#X connect 4 1 2 0;
#X connect 5 0 4 0;
#X restore 798 586 pd switcher;
#X msg 692 781 append \$1;
#X msg 919 564 0;
#X msg 746 532 1;
#X obj 280 464 t b b b b;
#X msg 540 883 0;
#X msg 932 799 1;
#X obj 140 34 inlet list;
#N canvas 182 182 896 652 switcher 0;
#X obj 217 67 inlet;
#X obj 230 412 outlet out0;
#X obj 432 408 outlet out1;
#X obj 392 65 inlet select outlet;
#X obj 270 281 route 0 1;
#X obj 265 222 list prepend 0;
#X connect 0 0 5 0;
#X connect 3 0 5 1;
#X connect 4 0 1 0;
#X connect 4 1 2 0;
#X connect 5 0 4 0;
#X restore 468 942 pd switcher;
#X connect 0 0 1 0;
#X connect 1 1 19 0;
#X connect 2 0 15 0;
#X connect 2 1 3 0;
#X connect 3 0 14 0;
#X connect 3 1 11 0;
#X connect 4 0 5 0;
#X connect 4 1 6 0;
#X connect 4 2 17 0;
#X connect 5 0 12 0;
#X connect 6 0 12 0;
#X connect 7 0 4 0;
#X connect 7 1 13 0;
#X connect 8 0 2 0;
#X connect 11 0 12 0;
#X connect 11 1 7 0;
#X connect 12 0 0 0;
#X connect 13 0 11 1;
#X connect 14 0 11 1;
#X connect 15 0 16 0;
#X connect 15 1 0 1;
#X connect 15 2 0 0;
#X connect 16 0 19 1;
#X connect 17 0 19 1;
#X connect 18 0 8 0;
#X connect 19 0 9 0;
#X connect 19 1 10 0;
#X restore 85 529 pd slipToBytes;
#X text 209 577 Error checking : make sure the packet size is a multiple of 4;
#N canvas 156 156 1101 683 sizeIsMultOf4 0;
#X obj 157 132 list length;
#X obj 161 161 % 4;
#X obj 168 199 == 0;
#X obj 236 245 select 0;
#N canvas 182 182 896 652 switcher 0;
#X obj 217 67 inlet;
#X obj 230 412 outlet out0;
#X obj 432 408 outlet out1;
#X obj 392 65 inlet select outlet;
#X obj 270 281 route 0 1;
#X obj 265 222 list prepend 0;
#X connect 0 0 5 0;
#X connect 3 0 5 1;
#X connect 4 0 1 0;
#X connect 4 1 2 0;
#X connect 5 0 4 0;
#X restore 104 312 pd switcher;
#X obj 103 96 t a a b;
#X msg 270 90 0;
#X msg 238 284 1;
#X obj 246 434 outlet error;
#X obj 105 431 outlet valid;
#X obj 102 37 inlet list;
#X connect 0 0 1 0;
#X connect 1 0 2 0;
#X connect 2 0 3 0;
#X connect 3 0 7 0;
#X connect 4 0 9 0;
#X connect 4 1 8 0;
#X connect 5 0 4 0;
#X connect 5 1 0 0;
#X connect 5 2 6 0;
#X connect 6 0 4 1;
#X connect 7 0 4 1;
#X connect 10 0 5 0;
#X restore 85 580 pd sizeIsMultOf4;
#X msg 162 359 baud 115200 \, devicename COM4;
#X msg 239 818 connect localhost 8001;
#X obj 964 548 cnv 15 800 120 empty empty CONVERT_SLIP_TO_BYTES(LIST) 0 -10 0 14 #c4fcc4 #606060 0;
#X obj 1378 110 cnv 15 400 100 empty empty CONVERT_PD_MESSAGE_TO_BYTES(LIST) 0 -10 0 14 #c4c4fc #404040 0;
#X obj 1002 709 cnv 15 400 260 empty empty CONVERT_BYTES(LIST)_TO_PD_MESSAGE 0 -10 0 14 #c4c4fc #404040 0;
#X obj 971 116 cnv 15 200 60 empty empty RECEIVE_BYTES(LIST)_FROM_UDP 0 -10 0 14 #fcfcc4 #404040 0;
#X obj 966 237 cnv 15 800 60 empty empty CONVERT_BYTES(LIST)_TO_SLIP 0 -10 0 14 #c4fcc4 #606060 0;
#X obj 965 323 cnv 15 800 200 empty empty SERIAL 0 -10 0 14 #c4fcfc #404040 0;
#X obj 1094 493 print errors;
#X msg 1053 335 devices;
#X text 1110 463 Serial port input/output;
#X text 1115 334 List all serial ports;
#X text 1279 387 Configure the baud rate and open the named serial port;
#X msg 1111 409 close;
#X text 1159 408 Close the port;
#X text 1102 552 Convert from SLIP to a raw OSC message;
#X obj 1071 361 loadbang;
#X obj 1017 151 bng 15 250 50 0 empty empty data 17 7 0 10 #fcfcfc #000000 #000000;
#X obj 1027 1054 cnv 15 350 200 empty empty SEND_BYTES(LIST)_TO_UDP 0 -10 0 14 #fcfcc4 #404040 0;
#X obj 1212 1112 loadbang;
#X msg 1212 1176 disconnect;
#X obj 993 464 comport/comport;
#X obj 1108 275 bng 15 250 50 0 empty empty error 17 7 0 10 #fcfcfc #000000 #000000;
#X obj 1087 580 bng 15 250 50 0 empty empty error 17 7 0 10 #fcfcfc #000000 #000000;
#X obj 1010 493 bng 15 250 50 0 empty empty data 17 7 0 10 #fcfcfc #000000 #000000;
#X obj 1106 634 bng 15 250 50 0 empty empty error 17 7 0 10 #fcfcfc #000000 #000000;
#X obj 1058 1207 netsend -u -b;
#X obj 1015 719 oscparse;
#X text 1078 720 Convert raw OSC to PD message;
#X obj 1015 748 list trim;
#X obj 1039 1066 list prepend send;
#X obj 1039 1092 list trim;
#X obj 1386 122 tgl 15 0 empty empty empty 17 7 0 10 #fcfcfc #000000 #000000 0 1;
#X floatatom 1591 122 5 0 255 0 - - - 0;
#X obj 1386 155 oscformat -f i led;
#X obj 1591 154 oscformat -f i pwm;
#X text 1057 768 WARNING: oscparse removes the / from the address;
#X text 1120 249 Convert from byte list (raw OSC) to SLIP;
#X text 973 32 This patcher was created by Thomas O Fredericks on 2022-11-27 and it requires the following additionnal library/object: comport;
#X text 1384 176 WARNING: oscfornat automatically prefixes / to the address;
#N canvas 0 50 1091 873 bytesToSlip 0;
#X obj 258 613 list store;
#X msg 602 532 append \$1;
#X obj 574 456 select 192 219;
#X msg 580 494 219 \, 220;
#X msg 673 495 219 \, 221;
#X msg 119 464 append 192 \, bang;
#X msg 293 411 192;
#X obj 635 787 outlet error;
#X obj 347 790 outlet slip;
#N canvas 156 156 450 300 iterate 0;
#X obj 118 136 until;
#X obj 131 219 list store;
#X obj 152 103 t b b l;
#X obj 118 161 f;
#X obj 156 162 + 1;
#X msg 175 136 0, f 2;
#X msg 118 192 get \$1 1;
#X obj 159 28 inlet;
#X obj 175 266 outlet;
#X connect 0 0 3 0;
#X connect 1 0 8 0;
#X connect 1 1 0 1;
#X connect 2 0 0 0;
#X connect 2 1 5 0;
#X connect 2 2 1 1;
#X connect 3 0 4 0;
#X connect 3 0 6 0;
#X connect 4 0 3 1;
#X connect 5 0 3 1;
#X connect 6 0 1 0;
#X connect 7 0 2 0;
#X restore 391 274 pd iterate;
#X obj 479 349 moses 256;
#X obj 391 311 moses 0;
#X obj 218 52 inlet list;
#N canvas 182 182 896 652 switcher 0;
#X obj 217 67 inlet;
#X obj 230 412 outlet out0;
#X obj 432 408 outlet out1;
#X obj 392 65 inlet select outlet;
#X obj 270 281 route 0 1;
#X obj 265 222 list prepend 0;
#X connect 0 0 5 0;
#X connect 3 0 5 1;
#X connect 4 0 1 0;
#X connect 4 1 2 0;
#X connect 5 0 4 0;
#X restore 401 688 pd switcher;
#X msg 442 445 1;
#X obj 218 130 t b b a b;
#X msg 391 448 0;
#X connect 0 0 13 0;
#X connect 1 0 0 0;
#X connect 2 0 3 0;
#X connect 2 1 4 0;
#X connect 2 2 1 0;
#X connect 3 0 1 0;
#X connect 4 0 1 0;
#X connect 5 0 0 0;
#X connect 6 0 0 1;
#X connect 9 0 11 0;
#X connect 10 0 2 0;
#X connect 10 1 14 0;
#X connect 11 0 14 0;
#X connect 11 1 10 0;
#X connect 12 0 15 0;
#X connect 13 0 8 0;
#X connect 13 1 7 0;
#X connect 14 0 13 1;
#X connect 15 0 16 0;
#X connect 15 1 5 0;
#X connect 15 2 9 0;
#X connect 15 3 6 0;
#X connect 16 0 13 1;
#X restore 995 250 pd bytesToSlip;
#N canvas 0 50 1195 915 slipToBytes 0;
#X obj 292 702 list store;
#X obj 293 806 route bang;
#X obj 281 309 select 192;
#X obj 750 475 select 219;
#X obj 813 672 select 220 221;
#X msg 801 726 192;
#X msg 848 724 219;
#X obj 823 637 t a b;
#N canvas 156 156 450 300 iterate 0;
#X obj 118 136 until;
#X obj 131 219 list store;
#X obj 152 103 t b b l;
#X obj 118 161 f;
#X obj 156 162 + 1;
#X msg 175 136 0, f 2;
#X msg 118 192 get \$1 1;
#X obj 159 28 inlet;
#X obj 175 266 outlet;
#X connect 0 0 3 0;
#X connect 1 0 8 0;
#X connect 1 1 0 1;
#X connect 2 0 0 0;
#X connect 2 1 5 0;
#X connect 2 2 1 1;
#X connect 3 0 4 0;
#X connect 3 0 6 0;
#X connect 4 0 3 1;
#X connect 5 0 3 1;
#X connect 6 0 1 0;
#X connect 7 0 2 0;
#X restore 281 261 pd iterate;
#X obj 366 1046 outlet decoded;
#X obj 639 1059 outlet error;
#N canvas 182 182 896 652 switcher 0;
#X obj 217 67 inlet;
#X obj 230 412 outlet out0;
#X obj 432 408 outlet out1;
#X obj 392 65 inlet select outlet;
#X obj 270 281 route 0 1;
#X obj 265 222 list prepend 0;
#X connect 0 0 5 0;
#X connect 3 0 5 1;
#X connect 4 0 1 0;
#X connect 4 1 2 0;
#X connect 5 0 4 0;
#X restore 798 586 pd switcher;
#X msg 692 781 append \$1;
#X msg 919 564 0;
#X msg 746 532 1;
#X obj 280 464 t b b b b;
#X msg 540 883 0;
#X msg 932 799 1;
#X obj 140 34 inlet list;
#N canvas 182 182 896 652 switcher 0;
#X obj 217 67 inlet;
#X obj 230 412 outlet out0;
#X obj 432 408 outlet out1;
#X obj 392 65 inlet select outlet;
#X obj 270 281 route 0 1;
#X obj 265 222 list prepend 0;
#X connect 0 0 5 0;
#X connect 3 0 5 1;
#X connect 4 0 1 0;
#X connect 4 1 2 0;
#X connect 5 0 4 0;
#X restore 468 942 pd switcher;
#X connect 0 0 1 0;
#X connect 1 1 19 0;
#X connect 2 0 15 0;
#X connect 2 1 3 0;
#X connect 3 0 14 0;
#X connect 3 1 11 0;
#X connect 4 0 5 0;
#X connect 4 1 6 0;
#X connect 4 2 17 0;
#X connect 5 0 12 0;
#X connect 6 0 12 0;
#X connect 7 0 4 0;
#X connect 7 1 13 0;
#X connect 8 0 2 0;
#X connect 11 0 12 0;
#X connect 11 1 7 0;
#X connect 12 0 0 0;
#X connect 13 0 11 1;
#X connect 14 0 11 1;
#X connect 15 0 16 0;
#X connect 15 1 0 1;
#X connect 15 2 0 0;
#X connect 16 0 19 1;
#X connect 17 0 19 1;
#X connect 18 0 8 0;
#X connect 19 0 9 0;
#X connect 19 1 10 0;
#X restore 994 556 pd slipToBytes;
#X text 1118 604 Error checking : make sure the packet size is a multiple of 4;
#N canvas 156 156 1101 683 sizeIsMultOf4 0;
#X obj 157 132 list length;
#X obj 161 161 % 4;
#X obj 168 199 == 0;
#X obj 236 245 select 0;
#N canvas 182 182 896 652 switcher 0;
#X obj 217 67 inlet;
#X obj 230 412 outlet out0;
#X obj 432 408 outlet out1;
#X obj 392 65 inlet select outlet;
#X obj 270 281 route 0 1;
#X obj 265 222 list prepend 0;
#X connect 0 0 5 0;
#X connect 3 0 5 1;
#X connect 4 0 1 0;
#X connect 4 1 2 0;
#X connect 5 0 4 0;
#X restore 104 312 pd switcher;
#X obj 103 96 t a a b;
#X msg 270 90 0;
#X msg 238 284 1;
#X obj 246 434 outlet error;
#X obj 105 431 outlet valid;
#X obj 102 37 inlet list;
#X connect 0 0 1 0;
#X connect 1 0 2 0;
#X connect 2 0 3 0;
#X connect 3 0 7 0;
#X connect 4 0 9 0;
#X connect 4 1 8 0;
#X connect 5 0 4 0;
#X connect 5 1 0 0;
#X connect 5 2 6 0;
#X connect 6 0 4 1;
#X connect 7 0 4 1;
#X connect 10 0 5 0;
#X restore 994 607 pd sizeIsMultOf4;
#X msg 1071 386 baud 115200 \, devicename COM7;
#X obj 993 122 netreceive -u -b 8002;
#X obj 1015 805 route tag;
#X obj 1097 987 oscformat -f i tag;
#X msg 1017 876 1;
#X obj 930 916 print;
#X obj 1015 841 route 000A6EEF 000CA700 000C74E9;
#X msg 1097 876 2;
#X msg 1168 876 3;
#X msg 1212 1144 connect localhost 8001;
#X obj 84 95 netreceive -u -b 8001;
#X obj 1888 556 cnv 15 800 120 empty empty CONVERT_SLIP_TO_BYTES(LIST) 0 -10 0 14 #c4fcc4 #606060 0;
#X obj 2302 118 cnv 15 400 100 empty empty CONVERT_PD_MESSAGE_TO_BYTES(LIST) 0 -10 0 14 #c4c4fc #404040 0;
#X obj 1926 717 cnv 15 400 260 empty empty CONVERT_BYTES(LIST)_TO_PD_MESSAGE 0 -10 0 14 #c4c4fc #404040 0;
#X obj 1895 124 cnv 15 200 60 empty empty RECEIVE_BYTES(LIST)_FROM_UDP 0 -10 0 14 #fcfcc4 #404040 0;
#X obj 1890 245 cnv 15 800 60 empty empty CONVERT_BYTES(LIST)_TO_SLIP 0 -10 0 14 #c4fcc4 #606060 0;
#X obj 1889 331 cnv 15 800 200 empty empty SERIAL 0 -10 0 14 #c4fcfc #404040 0;
#X obj 2018 501 print errors;
#X msg 1977 343 devices;
#X text 2034 471 Serial port input/output;
#X text 2039 342 List all serial ports;
#X text 2203 395 Configure the baud rate and open the named serial port;
#X msg 2035 417 close;
#X text 2083 416 Close the port;
#X text 2026 560 Convert from SLIP to a raw OSC message;
#X obj 1995 369 loadbang;
#X obj 1941 159 bng 15 250 50 0 empty empty data 17 7 0 10 #fcfcfc #000000 #000000;
#X obj 1951 1062 cnv 15 350 200 empty empty SEND_BYTES(LIST)_TO_UDP 0 -10 0 14 #fcfcc4 #404040 0;
#X obj 2136 1120 loadbang;
#X msg 2136 1184 disconnect;
#X obj 1917 472 comport/comport;
#X obj 2032 283 bng 15 250 50 0 empty empty error 17 7 0 10 #fcfcfc #000000 #000000;
#X obj 2011 588 bng 15 250 50 0 empty empty error 17 7 0 10 #fcfcfc #000000 #000000;
#X obj 1934 501 bng 15 250 50 0 empty empty data 17 7 0 10 #fcfcfc #000000 #000000;
#X obj 2030 642 bng 15 250 50 0 empty empty error 17 7 0 10 #fcfcfc #000000 #000000;
#X obj 1982 1215 netsend -u -b;
#X obj 1939 727 oscparse;
#X text 2002 728 Convert raw OSC to PD message;
#X obj 1939 756 list trim;
#X obj 1963 1074 list prepend send;
#X obj 1963 1100 list trim;
#X obj 2310 130 tgl 15 0 empty empty empty 17 7 0 10 #fcfcfc #000000 #000000 0 1;
#X floatatom 2515 130 5 0 255 0 - - - 0;
#X obj 2310 163 oscformat -f i led;
#X obj 2515 162 oscformat -f i pwm;
#X text 1981 776 WARNING: oscparse removes the / from the address;
#X text 2044 257 Convert from byte list (raw OSC) to SLIP;
#X text 1897 40 This patcher was created by Thomas O Fredericks on 2022-11-27 and it requires the following additionnal library/object: comport;
#X text 2308 184 WARNING: oscfornat automatically prefixes / to the address;
#N canvas 0 50 1091 873 bytesToSlip 0;
#X obj 258 613 list store;
#X msg 602 532 append \$1;
#X obj 574 456 select 192 219;
#X msg 580 494 219 \, 220;
#X msg 673 495 219 \, 221;
#X msg 119 464 append 192 \, bang;
#X msg 293 411 192;
#X obj 635 787 outlet error;
#X obj 347 790 outlet slip;
#N canvas 156 156 450 300 iterate 0;
#X obj 118 136 until;
#X obj 131 219 list store;
#X obj 152 103 t b b l;
#X obj 118 161 f;
#X obj 156 162 + 1;
#X msg 175 136 0, f 2;
#X msg 118 192 get \$1 1;
#X obj 159 28 inlet;
#X obj 175 266 outlet;
#X connect 0 0 3 0;
#X connect 1 0 8 0;
#X connect 1 1 0 1;
#X connect 2 0 0 0;
#X connect 2 1 5 0;
#X connect 2 2 1 1;
#X connect 3 0 4 0;
#X connect 3 0 6 0;
#X connect 4 0 3 1;
#X connect 5 0 3 1;
#X connect 6 0 1 0;
#X connect 7 0 2 0;
#X restore 391 274 pd iterate;
#X obj 479 349 moses 256;
#X obj 391 311 moses 0;
#X obj 218 52 inlet list;
#N canvas 182 182 896 652 switcher 0;
#X obj 217 67 inlet;
#X obj 230 412 outlet out0;
#X obj 432 408 outlet out1;
#X obj 392 65 inlet select outlet;
#X obj 270 281 route 0 1;
#X obj 265 222 list prepend 0;
#X connect 0 0 5 0;
#X connect 3 0 5 1;
#X connect 4 0 1 0;
#X connect 4 1 2 0;
#X connect 5 0 4 0;
#X restore 401 688 pd switcher;
#X msg 442 445 1;
#X obj 218 130 t b b a b;
#X msg 391 448 0;
#X connect 0 0 13 0;
#X connect 1 0 0 0;
#X connect 2 0 3 0;
#X connect 2 1 4 0;
#X connect 2 2 1 0;
#X connect 3 0 1 0;
#X connect 4 0 1 0;
#X connect 5 0 0 0;
#X connect 6 0 0 1;
#X connect 9 0 11 0;
#X connect 10 0 2 0;
#X connect 10 1 14 0;
#X connect 11 0 14 0;
#X connect 11 1 10 0;
#X connect 12 0 15 0;
#X connect 13 0 8 0;
#X connect 13 1 7 0;
#X connect 14 0 13 1;
#X connect 15 0 16 0;
#X connect 15 1 5 0;
#X connect 15 2 9 0;
#X connect 15 3 6 0;
#X connect 16 0 13 1;
#X restore 1919 258 pd bytesToSlip;
#N canvas 0 50 1195 915 slipToBytes 0;
#X obj 292 702 list store;
#X obj 293 806 route bang;
#X obj 281 309 select 192;
#X obj 750 475 select 219;
#X obj 813 672 select 220 221;
#X msg 801 726 192;
#X msg 848 724 219;
#X obj 823 637 t a b;
#N canvas 156 156 450 300 iterate 0;
#X obj 118 136 until;
#X obj 131 219 list store;
#X obj 152 103 t b b l;
#X obj 118 161 f;
#X obj 156 162 + 1;
#X msg 175 136 0, f 2;
#X msg 118 192 get \$1 1;
#X obj 159 28 inlet;
#X obj 175 266 outlet;
#X connect 0 0 3 0;
#X connect 1 0 8 0;
#X connect 1 1 0 1;
#X connect 2 0 0 0;
#X connect 2 1 5 0;
#X connect 2 2 1 1;
#X connect 3 0 4 0;
#X connect 3 0 6 0;
#X connect 4 0 3 1;
#X connect 5 0 3 1;
#X connect 6 0 1 0;
#X connect 7 0 2 0;
#X restore 281 261 pd iterate;
#X obj 366 1046 outlet decoded;
#X obj 639 1059 outlet error;
#N canvas 182 182 896 652 switcher 0;
#X obj 217 67 inlet;
#X obj 230 412 outlet out0;
#X obj 432 408 outlet out1;
#X obj 392 65 inlet select outlet;
#X obj 270 281 route 0 1;
#X obj 265 222 list prepend 0;
#X connect 0 0 5 0;
#X connect 3 0 5 1;
#X connect 4 0 1 0;
#X connect 4 1 2 0;
#X connect 5 0 4 0;
#X restore 798 586 pd switcher;
#X msg 692 781 append \$1;
#X msg 919 564 0;
#X msg 746 532 1;
#X obj 280 464 t b b b b;
#X msg 540 883 0;
#X msg 932 799 1;
#X obj 140 34 inlet list;
#N canvas 182 182 896 652 switcher 0;
#X obj 217 67 inlet;
#X obj 230 412 outlet out0;
#X obj 432 408 outlet out1;
#X obj 392 65 inlet select outlet;
#X obj 270 281 route 0 1;
#X obj 265 222 list prepend 0;
#X connect 0 0 5 0;
#X connect 3 0 5 1;
#X connect 4 0 1 0;
#X connect 4 1 2 0;
#X connect 5 0 4 0;
#X restore 468 942 pd switcher;
#X connect 0 0 1 0;
#X connect 1 1 19 0;
#X connect 2 0 15 0;
#X connect 2 1 3 0;
#X connect 3 0 14 0;
#X connect 3 1 11 0;
#X connect 4 0 5 0;
#X connect 4 1 6 0;
#X connect 4 2 17 0;
#X connect 5 0 12 0;
#X connect 6 0 12 0;
#X connect 7 0 4 0;
#X connect 7 1 13 0;
#X connect 8 0 2 0;
#X connect 11 0 12 0;
#X connect 11 1 7 0;
#X connect 12 0 0 0;
#X connect 13 0 11 1;
#X connect 14 0 11 1;
#X connect 15 0 16 0;
#X connect 15 1 0 1;
#X connect 15 2 0 0;
#X connect 16 0 19 1;
#X connect 17 0 19 1;
#X connect 18 0 8 0;
#X connect 19 0 9 0;
#X connect 19 1 10 0;
#X restore 1918 564 pd slipToBytes;
#X text 2042 612 Error checking : make sure the packet size is a multiple of 4;
#N canvas 156 156 1101 683 sizeIsMultOf4 0;
#X obj 157 132 list length;
#X obj 161 161 % 4;
#X obj 168 199 == 0;
#X obj 236 245 select 0;
#N canvas 182 182 896 652 switcher 0;
#X obj 217 67 inlet;
#X obj 230 412 outlet out0;
#X obj 432 408 outlet out1;
#X obj 392 65 inlet select outlet;
#X obj 270 281 route 0 1;
#X obj 265 222 list prepend 0;
#X connect 0 0 5 0;
#X connect 3 0 5 1;
#X connect 4 0 1 0;
#X connect 4 1 2 0;
#X connect 5 0 4 0;
#X restore 104 312 pd switcher;
#X obj 103 96 t a a b;
#X msg 270 90 0;
#X msg 238 284 1;
#X obj 246 434 outlet error;
#X obj 105 431 outlet valid;
#X obj 102 37 inlet list;
#X connect 0 0 1 0;
#X connect 1 0 2 0;
#X connect 2 0 3 0;
#X connect 3 0 7 0;
#X connect 4 0 9 0;
#X connect 4 1 8 0;
#X connect 5 0 4 0;
#X connect 5 1 0 0;
#X connect 5 2 6 0;
#X connect 6 0 4 1;
#X connect 7 0 4 1;
#X connect 10 0 5 0;
#X restore 1918 615 pd sizeIsMultOf4;
#X obj 1939 813 route tag;
#X obj 2021 995 oscformat -f i tag;
#X msg 1941 884 1;
#X obj 1854 924 print;
#X obj 1939 849 route 000A6EEF 000CA700 000C74E9;
#X msg 2021 884 2;
#X msg 2092 884 3;
#X msg 2136 1152 connect localhost 8001;
#X obj 1917 130 netreceive -u -b 8003;
#X msg 1995 394 baud 115200 \, devicename COM8;
#X connect 7 0 23 0;
#X connect 11 0 23 0;
#X connect 14 0 50 0;
#X connect 16 0 18 0;
#X connect 17 0 16 1;
#X connect 20 0 51 0;
#X connect 21 0 28 0;
#X connect 23 0 47 0;
#X connect 23 0 26 0;
#X connect 23 1 6 0;
#X connect 29 0 31 0;
#X connect 31 0 16 0;
#X connect 31 0 39 0;
#X connect 32 0 33 0;
#X connect 33 0 28 0;
#X connect 37 0 40 0;
#X connect 38 0 41 0;
#X connect 39 0 34 0;
#X connect 39 1 35 0;
#X connect 39 2 36 0;
#X connect 40 0 46 0;
#X connect 41 0 46 0;
#X connect 46 0 23 0;
#X connect 46 1 24 0;
#X connect 47 0 49 0;
#X connect 47 1 25 0;
#X connect 49 0 29 0;
#X connect 49 0 32 0;
#X connect 49 1 27 0;
#X connect 50 0 23 0;
#X connect 51 0 28 0;
#X connect 59 0 71 0;
#X connect 63 0 71 0;
#X connect 66 0 94 0;
#X connect 69 0 103 0;
#X connect 70 0 76 0;
#X connect 71 0 91 0;
#X connect 71 0 74 0;
#X connect 71 1 58 0;
#X connect 77 0 79 0;
#X connect 79 0 96 0;
#X connect 80 0 81 0;
#X connect 81 0 76 0;
#X connect 82 0 84 0;
#X connect 83 0 85 0;
#X connect 84 0 90 0;
#X connect 85 0 90 0;
#X connect 90 0 71 0;
#X connect 90 1 72 0;
#X connect 91 0 93 0;
#X connect 91 1 73 0;
#X connect 93 0 77 0;
#X connect 93 1 75 0;
#X connect 94 0 71 0;
#X connect 95 0 90 0;
#X connect 95 0 67 0;
#X connect 96 0 99 0;
#X connect 96 0 100 0;
#X connect 97 0 80 0;
#X connect 98 0 97 0;
#X connect 100 0 98 0;
#X connect 100 1 101 0;
#X connect 100 2 102 0;
#X connect 101 0 97 0;
#X connect 102 0 97 0;
#X connect 103 0 76 0;
#X connect 104 0 46 0;
#X connect 104 0 15 0;
#X connect 112 0 124 0;
#X connect 116 0 124 0;
#X connect 119 0 156 0;
#X connect 122 0 154 0;
#X connect 123 0 129 0;
#X connect 124 0 144 0;
#X connect 124 0 127 0;
#X connect 124 1 111 0;
#X connect 130 0 132 0;
#X connect 132 0 147 0;
#X connect 133 0 134 0;
#X connect 134 0 129 0;
#X connect 135 0 137 0;
#X connect 136 0 138 0;
#X connect 137 0 143 0;
#X connect 138 0 143 0;
#X connect 143 0 124 0;
#X connect 143 1 125 0;
#X connect 144 0 146 0;
#X connect 144 1 126 0;
#X connect 146 0 130 0;
#X connect 146 1 128 0;
#X connect 147 0 150 0;
#X connect 147 0 151 0;
#X connect 148 0 133 0;
#X connect 149 0 148 0;
#X connect 151 0 149 0;
#X connect 151 1 152 0;
#X connect 151 2 153 0;
#X connect 152 0 148 0;
#X connect 153 0 148 0;
#X connect 154 0 129 0;
#X connect 155 0 143 0;
#X connect 155 0 120 0;
#X connect 156 0 124 0;
